<?xml version="1.0" encoding="iso-8859-1"?>
<!-- Generator: Adobe Illustrator 18.0.0, SVG Export Plug-In . SVG Version: 6.00 Build 0)  -->
<!DOCTYPE svg PUBLIC "-//W3C//DTD SVG 1.1//EN" "http://www.w3.org/Graphics/SVG/1.1/DTD/svg11.dtd">
<svg version="1.1" id="Capa_1" xmlns="http://www.w3.org/2000/svg" xmlns:xlink="http://www.w3.org/1999/xlink" x="0px" y="0px"
	 viewBox="0 0 480.34 480.34" style="enable-background:new 0 0 480.34 480.34;" xml:space="preserve">
<g>
	<g id="XMLID_8_">
		<g>
			<path d="M480.09,106.179v344.48c0,2.21-1.79,4-4,4H4.25c-2.21,0-4-1.79-4-4v-344.48c0-2.21,1.79-4,4-4h18.41
				c3.09-42.15,38.34-75.5,81.26-75.5c24.33,0,46.19,10.73,61.13,27.69l4.66-4.66c-1.14-1.29-2.31-2.55-3.54-3.78
				c-4.92-4.92-10.39-9.24-16.25-12.84c-1.89-1.15-2.48-3.62-1.32-5.5c1.15-1.88,3.62-2.47,5.5-1.32c6.4,3.93,12.37,8.64,17.73,14
				c17.2,17.2,26.47,39.35,27.87,61.91h86.57c-0.66-6.1-1.09-10.09-1.09-10.23c0-5.06,3.78-9.5,10.07-12.72l-5.93-25.67
				c-0.5-2.15,0.84-4.3,3-4.8c2.15-0.49,4.3,0.85,4.79,3l5.68,24.55c2.08-0.6,4.31-1.1,6.66-1.49l-3.54-35.77
				c-0.22-2.19,1.38-4.15,3.58-4.37c2.2-0.22,4.16,1.39,4.38,3.59l3.53,35.7c1.39-0.07,2.79-0.11,4.23-0.11
				c1.2,0,2.38,0.03,3.54,0.08l1.39-22.86c0.14-2.2,2.03-3.87,4.24-3.75c2.2,0.14,3.88,2.03,3.75,4.24l-1.41,23.14
				c2.89,0.45,5.61,1.07,8.1,1.83l5.36-35.15c0.33-2.18,2.37-3.68,4.56-3.35c2.18,0.33,3.68,2.37,3.35,4.56l-5.65,37.07
				c5.78,3.18,9.21,7.45,9.21,12.28c0,0.14-0.42,4.13-1.08,10.23h119.1C478.3,102.179,480.09,103.969,480.09,106.179z
				 M472.09,446.659v-19.14H8.25v19.14H472.09z M472.09,419.519v-309.34H356.13c-2.52,23.28-6.6,60.57-6.6,60.57
				c-0.22,7.06-9.8,14.13-27.9,14.13s-27.68-7.07-27.9-14.13c0,0-4.08-37.29-6.6-60.57h-87.27c-0.49,23.92-9.82,47.69-28.03,65.91
				c-17.71,17.71-40.67,27.03-63.91,27.99v4.25c19.94,0.92,34.52,8.74,34.52,18.89c0,10.83-16.56,18.99-38.52,18.99
				s-38.52-8.16-38.52-18.99c0-10.15,14.58-17.97,34.52-18.89v-4.25c-22-0.91-43.73-9.33-61.01-25.24l-4.66,4.67
				c-0.78,0.78-1.81,1.17-2.83,1.17c-1.02,0-2.05-0.39-2.83-1.17c-1.56-1.56-1.56-4.1,0-5.66l4.66-4.66
				c-4.74-5.15-8.91-10.78-12.41-16.79c-1.11-1.91-0.46-4.36,1.45-5.47s4.36-0.46,5.47,1.45c3.14,5.42,6.89,10.49,11.15,15.15
				l4.65-4.65c-12.71-14.01-20.6-32.45-21.09-52.7H8.25v309.34H472.09z M350.07,91.949c0-1.16-0.87-2.46-2.52-3.74l-1.27,8.36
				C348.74,95.019,350.07,93.369,350.07,91.949z M341.56,170.069l7.15-65.77c-6.57,3.57-16.11,5.73-27.08,5.73
				s-20.51-2.16-27.08-5.73l7.15,65.77c0.01,0.14,0.02,0.28,0.02,0.43c0,1.85,6.98,6.38,19.91,6.38s19.91-4.53,19.91-6.38
				C341.54,170.349,341.54,170.209,341.56,170.069z M337.65,100.089l2.38-15.58c-2.16-0.71-4.63-1.32-7.38-1.78l-1.13,18.61
				C333.74,101.009,335.79,100.589,337.65,100.089z M323.46,102.009l1.23-20.09c-1-0.04-2.02-0.06-3.06-0.06
				c-1.18,0-2.32,0.03-3.44,0.08l1.99,20.08c0.48,0.01,0.96,0.01,1.45,0.01C322.25,102.029,322.86,102.029,323.46,102.009z
				 M312.08,101.389l-1.84-18.6c-2.05,0.36-3.94,0.8-5.65,1.3l3.85,16.67C309.59,100.999,310.81,101.209,312.08,101.389z
				 M299.58,97.959l-2.48-10.71c-2.54,1.57-3.92,3.25-3.92,4.7C293.18,93.809,295.47,96.059,299.58,97.959z M191.88,110.179h-6.51
				c-1.07,44.02-37.18,79.5-81.45,79.5c-21.03,0-40.23-8.01-54.7-21.14l-4.65,4.65c16.76,15.31,38.05,22.98,59.35,22.99
				c22.55,0,45.09-8.58,62.25-25.75C182.83,153.779,191.39,132.049,191.88,110.179z M185.19,102.179h6.51
				c-1.11-16.35-6.74-32.45-16.91-46.24l-4.72,4.72C178.62,72.529,184.06,86.759,185.19,102.179z M177.42,108.179
				c0-15.51-4.84-29.91-13.08-41.78l-2.79,2.79c-0.79,0.78-1.81,1.17-2.83,1.17c-1.03,0-2.05-0.39-2.83-1.17
				c-1.56-1.56-1.56-4.1,0-5.66l3.49-3.49c-13.48-15.52-33.34-25.36-55.46-25.36c-40.53,0-73.5,32.97-73.5,73.5
				s32.97,73.5,73.5,73.5S177.42,148.709,177.42,108.179z M134.44,227.219c0-4.15-10.21-10.03-26.52-10.88v8.34c0,2.21-1.79,4-4,4
				s-4-1.79-4-4v-8.34c-16.31,0.85-26.52,6.73-26.52,10.88c0,4.48,11.89,10.99,30.52,10.99S134.44,231.699,134.44,227.219z"/>
			<rect x="8.25" y="427.519" style="fill:#78AF64;" width="463.84" height="19.14"/>
			<path style="fill:#A4DDA6;" d="M472.09,110.179v309.34H8.25v-309.34h14.22c0.49,20.25,8.38,38.69,21.09,52.7l-4.65,4.65
				c-4.26-4.66-8.01-9.73-11.15-15.15c-1.11-1.91-3.56-2.56-5.47-1.45s-2.56,3.56-1.45,5.47c3.5,6.01,7.67,11.64,12.41,16.79
				l-4.66,4.66c-1.56,1.56-1.56,4.1,0,5.66c0.78,0.78,1.81,1.17,2.83,1.17c1.02,0,2.05-0.39,2.83-1.17l4.66-4.67
				c17.28,15.91,39.01,24.33,61.01,25.24v4.25c-19.94,0.92-34.52,8.74-34.52,18.89c0,10.83,16.56,18.99,38.52,18.99
				s38.52-8.16,38.52-18.99c0-10.15-14.58-17.97-34.52-18.89v-4.25c23.24-0.96,46.2-10.28,63.91-27.99
				c18.21-18.22,27.54-41.99,28.03-65.91h87.27c2.52,23.28,6.6,60.57,6.6,60.57c0.22,7.06,9.8,14.13,27.9,14.13
				s27.68-7.07,27.9-14.13c0,0,4.08-37.29,6.6-60.57H472.09z M466.59,276.989v-158c0-2.21-1.79-4-4-4h-79.75
				c-9.24,0-16.75,7.52-16.75,16.75v132.5c0,9.24,7.51,16.75,16.75,16.75h79.75C464.8,280.989,466.59,279.199,466.59,276.989z
				 M446.81,370.869c4.5-6.8,6.79-13.08,6.79-18.68c0-16.08-9.12-28.68-20.75-28.68c-3.31,0-6.47,1.06-9.3,3
				c-0.53-3.22-1.59-6.29-3.07-9.12c11.76-1.87,20.78-12.08,20.78-24.36v-3.12c0-2.21-1.79-4-4-4h-3.12
				c-12.02,0-22.05,8.64-24.23,20.03c-1.86-1.17-3.87-2.17-6-2.92c-2.08-0.74-4.37,0.35-5.11,2.44c-0.73,2.08,0.36,4.37,2.44,5.1
				c7,2.47,12.15,8.27,13.98,15.23c-2.54-1.48-5.3-2.28-8.18-2.28c-11.63,0-20.75,12.6-20.75,28.68c0,5.6,2.29,11.88,6.79,18.68
				c5.97,9.03,16.02,14.41,26.87,14.41C430.79,385.279,440.84,379.899,446.81,370.869z M354.09,382.659v-80c0-2.21-1.79-4-4-4
				s-4,1.79-4,4v80c0,2.21,1.79,4,4,4S354.09,384.869,354.09,382.659z M334.76,394.659v-103.63c0-0.01-0.01-0.02-0.01-0.03v-11.97
				c0-1.59-0.93-3.02-2.39-3.66c-1.45-0.64-3.14-0.36-4.31,0.71c-12.71,11.68-25.18,5.95-39.63-0.69
				c-14.07-6.46-29.92-13.73-45.67-1.58c-15.74-12.15-31.59-4.88-45.67,1.58c-14.44,6.64-26.91,12.37-39.62,0.69
				c-1.17-1.07-2.86-1.35-4.31-0.71c-1.46,0.64-2.4,2.07-2.4,3.66l0.01,115.63c0,1.12,0.47,2.18,1.29,2.94
				c7.08,6.51,14.21,8.84,21.21,8.84c0.66,0,138.21,0,138.99,0c7,0,14.13-2.33,21.21-8.84
				C334.29,396.839,334.76,395.779,334.76,394.659z M330.93,220.659l0.01-19.34c0-1.06-0.42-2.08-1.17-2.83s-1.77-1.17-2.83-1.17
				l-122.36,0.01c-2.2,0-3.99,1.79-4,4l-0.01,19.33c0,1.06,0.42,2.08,1.17,2.83s1.77,1.18,2.83,1.18l122.36-0.02
				C329.13,224.649,330.92,222.859,330.93,220.659z M275.46,154.699c2.18-0.32,3.7-2.35,3.38-4.54c-0.32-2.18-2.35-3.7-4.54-3.38
				l-35.04,5.1l-11.23-8.29c-1.04-6.89-6.98-12.18-14.15-12.18c-7.9,0-14.33,6.43-14.33,14.33c0,4.06,1.7,7.72,4.42,10.33
				c-2.72,2.61-4.42,6.28-4.42,10.34c0,7.9,6.43,14.33,14.33,14.33c7.17,0,13.11-5.3,14.15-12.18l11.23-8.29l35.04,5.09
				c2.19,0.32,4.22-1.19,4.54-3.38c0.32-2.18-1.2-4.21-3.38-4.53l-9.46-1.38L275.46,154.699z M115.42,402.439v-108.67
				c0-2.21-1.79-4-4-4h-82c-2.21,0-4,1.79-4,4v108.67c0,2.21,1.79,4,4,4h82C113.63,406.439,115.42,404.649,115.42,402.439z"/>
			<path d="M466.59,118.989v158c0,2.21-1.79,4-4,4h-79.75c-9.24,0-16.75-7.51-16.75-16.75v-132.5c0-9.23,7.51-16.75,16.75-16.75
				h79.75C464.8,114.989,466.59,116.779,466.59,118.989z M458.59,272.989v-17.5h-3.17v7.67c0,2.21-1.79,4-4,4H374.6
				c1.2,3.39,4.44,5.83,8.24,5.83H458.59z M458.59,247.489v-17.5h-3.17v7.67c0,2.21-1.79,4-4,4H374.6c1.2,3.39,4.44,5.83,8.24,5.83
				H458.59z M458.59,221.989v-99h-75.75c-4.83,0-8.75,3.93-8.75,8.75v92.75c2.55-1.57,5.54-2.5,8.75-2.5H458.59z M447.42,259.159
				v-3.67h-64.58c-2.93,0-5.52,1.45-7.11,3.67H447.42z M447.42,233.659v-3.67h-64.58c-2.93,0-5.52,1.45-7.11,3.67H447.42z"/>
			<path style="fill:#29ABE2;" d="M458.59,255.489v17.5h-75.75c-3.8,0-7.04-2.44-8.24-5.83h76.82c2.21,0,4-1.79,4-4v-7.67H458.59z"
				/>
			<path style="fill:#29ABE2;" d="M458.59,229.989v17.5h-75.75c-3.8,0-7.04-2.44-8.24-5.83h76.82c2.21,0,4-1.79,4-4v-7.67H458.59z"
				/>
			<path style="fill:#29ABE2;" d="M458.59,122.989v99h-75.75c-3.21,0-6.2,0.93-8.75,2.5v-92.75c0-4.82,3.92-8.75,8.75-8.75H458.59z
				 M448.09,155.659v-15.33c0-2.21-1.79-4-4-4h-44.67c-2.21,0-4,1.79-4,4v15.33c0,2.21,1.79,4,4,4h44.67
				C446.3,159.659,448.09,157.869,448.09,155.659z"/>
			<path d="M453.6,352.189c0,5.6-2.29,11.88-6.79,18.68c-5.97,9.03-16.02,14.41-26.86,14.41c-10.85,0-20.9-5.38-26.87-14.41
				c-4.5-6.8-6.79-13.08-6.79-18.68c0-16.08,9.12-28.68,20.75-28.68c2.88,0,5.64,0.8,8.18,2.28c-1.83-6.96-6.98-12.76-13.98-15.23
				c-2.08-0.73-3.17-3.02-2.44-5.1c0.74-2.09,3.03-3.18,5.11-2.44c2.13,0.75,4.14,1.75,6,2.92c2.18-11.39,12.21-20.03,24.23-20.03
				h3.12c2.21,0,4,1.79,4,4v3.12c0,12.28-9.02,22.49-20.78,24.36c1.48,2.83,2.54,5.9,3.07,9.12c2.83-1.94,5.99-3,9.3-3
				C444.48,323.509,453.6,336.109,453.6,352.189z M440.14,366.459c3.57-5.39,5.46-10.33,5.46-14.27c0-11.21-5.84-20.68-12.75-20.68
				c-3.52,0-6.95,2.52-9.42,6.91c-0.71,1.26-2.04,2.04-3.48,2.04c-1.45,0-2.78-0.78-3.49-2.04c-2.47-4.39-5.9-6.91-9.42-6.91
				c-6.91,0-12.75,9.47-12.75,20.68c0,3.94,1.89,8.87,5.46,14.27c4.49,6.78,12.04,10.82,20.2,10.82
				C428.1,377.279,435.65,373.239,440.14,366.459z M417.5,309.669c8.47-0.45,15.29-7.26,15.74-15.74
				C424.76,294.379,417.95,301.199,417.5,309.669z"/>
			<path d="M448.09,140.329v15.33c0,2.21-1.79,4-4,4h-44.67c-2.21,0-4-1.79-4-4v-15.33c0-2.21,1.79-4,4-4h44.67
				C446.3,136.329,448.09,138.119,448.09,140.329z M440.09,151.659v-7.33h-36.67v7.33H440.09z"/>
			<path style="fill:#E6E6E6;" d="M447.42,255.489v3.67h-71.69c1.59-2.22,4.18-3.67,7.11-3.67H447.42z"/>
			<path style="fill:#E6E6E6;" d="M447.42,229.989v3.67h-71.69c1.59-2.22,4.18-3.67,7.11-3.67H447.42z"/>
			<path style="fill:#E8653D;" d="M445.6,352.189c0,3.94-1.89,8.88-5.46,14.27c-4.49,6.78-12.04,10.82-20.19,10.82
				c-8.16,0-15.71-4.04-20.2-10.82c-3.57-5.4-5.46-10.33-5.46-14.27c0-11.21,5.84-20.68,12.75-20.68c3.52,0,6.95,2.52,9.42,6.91
				c0.71,1.26,2.04,2.04,3.49,2.04c1.44,0,2.77-0.78,3.48-2.04c2.47-4.39,5.9-6.91,9.42-6.91
				C439.76,331.509,445.6,340.979,445.6,352.189z"/>
			<rect x="403.42" y="144.329" style="fill:#E6E6E6;" width="36.67" height="7.33"/>
			<path style="fill:#76DD7F;" d="M433.24,293.929c-0.45,8.48-7.27,15.29-15.74,15.74C417.95,301.199,424.76,294.379,433.24,293.929
				z"/>
			<path d="M354.09,302.659v80c0,2.21-1.79,4-4,4s-4-1.79-4-4v-80c0-2.21,1.79-4,4-4S354.09,300.449,354.09,302.659z"/>
			<path style="fill:#BC482E;" d="M347.55,88.209c1.65,1.28,2.52,2.58,2.52,3.74c0,1.42-1.33,3.07-3.79,4.62L347.55,88.209z"/>
			<path style="fill:#E8653D;" d="M348.71,104.299l-7.15,65.77c-0.02,0.14-0.02,0.28-0.02,0.43c0,1.85-6.98,6.38-19.91,6.38
				s-19.91-4.53-19.91-6.38c0-0.15-0.01-0.29-0.02-0.43l-7.15-65.77c6.57,3.57,16.11,5.73,27.08,5.73S342.14,107.869,348.71,104.299
				z"/>
			<path style="fill:#BC482E;" d="M340.03,84.509l-2.38,15.58c-1.86,0.5-3.91,0.92-6.13,1.25l1.13-18.61
				C335.4,83.189,337.87,83.799,340.03,84.509z"/>
			<path d="M334.76,291.029v103.63c0,1.12-0.47,2.18-1.3,2.94c-7.08,6.51-14.21,8.84-21.21,8.84c-0.78,0-138.33,0-138.99,0
				c-7,0-14.13-2.33-21.21-8.84c-0.82-0.76-1.29-1.82-1.29-2.94l-0.01-115.63c0-1.59,0.94-3.02,2.4-3.66
				c1.45-0.64,3.14-0.36,4.31,0.71c12.71,11.68,25.18,5.95,39.62-0.69c14.08-6.46,29.93-13.73,45.67-1.58
				c15.75-12.15,31.6-4.88,45.67,1.58c14.45,6.64,26.92,12.37,39.63,0.69c1.17-1.07,2.86-1.35,4.31-0.71
				c1.46,0.64,2.39,2.07,2.39,3.66v11.97C334.75,291.009,334.76,291.019,334.76,291.029z M326.76,392.839v-2.27
				c-4.86,2.78-9.72,3.87-14.51,3.87c-9.43,0-18.62-4.22-27.17-8.15c-13.95-6.4-26.06-11.96-38.32-1.81v2.27
				c14.41-8.24,28.78-1.64,41.66,4.27C302.38,397.429,314.49,402.999,326.76,392.839z M326.75,380.839v-93.9
				c-14.41,8.24-28.78,1.64-41.67-4.28c-13.95-6.4-26.06-11.97-38.33-1.81l0.01,93.9c4.85-2.78,9.71-3.87,14.5-3.87
				c9.43,0,18.62,4.22,27.16,8.14C302.38,385.429,314.49,390.999,326.75,380.839z M244.05,398.439h41.34
				c-0.1-0.05-0.21-0.1-0.31-0.15c-14.44-6.63-26.91-12.36-39.62-0.69c-0.02,0.02-0.04,0.03-0.05,0.05
				c-0.08,0.06-0.16,0.12-0.24,0.18c-0.07,0.06-0.15,0.12-0.23,0.17c-0.08,0.05-0.16,0.09-0.24,0.14c-0.09,0.05-0.18,0.1-0.27,0.15
				c-0.02,0.01-0.04,0.02-0.06,0.03c-0.06,0.03-0.13,0.04-0.19,0.06C244.14,398.399,244.09,398.419,244.05,398.439z M200.11,398.439
				h41.36c-0.05-0.02-0.09-0.04-0.14-0.06c-0.06-0.02-0.12-0.04-0.18-0.06c-0.02-0.01-0.04-0.02-0.06-0.03
				c-0.1-0.05-0.19-0.1-0.28-0.15c-0.08-0.05-0.16-0.09-0.24-0.14c-0.07-0.05-0.15-0.11-0.23-0.17s-0.16-0.12-0.23-0.18
				c-0.02-0.02-0.04-0.03-0.06-0.05c-12.71-11.67-25.18-5.94-39.63,0.69C200.32,398.339,200.22,398.389,200.11,398.439z
				 M238.76,386.749v-2.27c-12.27-10.15-24.38-4.59-38.34,1.81c-8.54,3.93-17.73,8.15-27.16,8.15c-4.79,0-9.65-1.09-14.5-3.87v2.27
				c12.26,10.16,24.37,4.59,38.33-1.82C209.97,385.109,224.34,378.509,238.76,386.749z M238.75,374.749v-93.9
				c-12.26-10.16-24.37-4.59-38.33,1.81c-12.88,5.92-27.25,12.52-41.67,4.28v4.06c0,0.01,0.01,0.02,0.01,0.03v89.82
				c12.26,10.15,24.37,4.58,38.32-1.83C209.97,373.109,224.34,366.509,238.75,374.749z"/>
			<path d="M330.94,201.319l-0.01,19.34c-0.01,2.2-1.8,3.99-4,3.99l-122.36,0.02c-1.06,0-2.08-0.43-2.83-1.18s-1.17-1.77-1.17-2.83
				l0.01-19.33c0.01-2.21,1.8-4,4-4l122.36-0.01c1.06,0,2.08,0.42,2.83,1.17S330.94,200.259,330.94,201.319z M322.93,216.649
				l0.01-11.33h-5.39v3.34c-0.01,2.21-1.8,3.99-4,3.99c-0.01,0-0.01,0-0.01,0c-2.21,0-4-1.79-3.99-4v-3.33h-5.66v3.34
				c0,1.1-0.45,2.1-1.17,2.83c-0.73,0.72-1.73,1.17-2.83,1.17c-2.21-0.01-4-1.8-4-4.01v-3.33h-5.65v3.34c0,2.21-1.79,4-4,4
				c0,0,0,0-0.01,0c-2.2,0-3.99-1.8-3.99-4.01v-3.33h-5.65l-0.01,3.34c0,1.1-0.45,2.1-1.17,2.83c-0.72,0.72-1.72,1.17-2.83,1.17
				c-2.21,0-4-1.8-4-4l0.01-3.33h-5.66v3.33c0,1.1-0.45,2.1-1.17,2.83c-0.73,0.72-1.73,1.17-2.83,1.17c-2.21,0-4-1.79-4-4v-3.33
				h-5.65v3.33c-0.01,2.21-1.8,4-4,4c-0.01,0-0.01,0-0.01,0c-2.21,0-4-1.79-3.99-4v-3.33h-5.66v3.34c0,1.1-0.45,2.1-1.17,2.82
				s-1.72,1.17-2.83,1.17c-2.21,0-4-1.79-4-4v-3.33h-5.65v3.34c0,2.21-1.79,3.99-4,3.99c0,0,0,0-0.01,0c-2.2,0-3.99-1.79-3.99-4
				v-3.33h-5.39l-0.01,11.33L322.93,216.649z"/>
			<path style="fill:#B3B3B3;" d="M326.76,390.569v2.27c-12.27,10.16-24.38,4.59-38.34-1.82c-12.88-5.91-27.25-12.51-41.66-4.27
				v-2.27c12.26-10.15,24.37-4.59,38.32,1.81c8.55,3.93,17.74,8.15,27.17,8.15C317.04,394.439,321.9,393.349,326.76,390.569z"/>
			<path style="fill:#E6E6E6;" d="M326.75,286.939v93.9c-12.26,10.16-24.37,4.59-38.33-1.82c-8.54-3.92-17.73-8.14-27.16-8.14
				c-4.79,0-9.65,1.09-14.5,3.87l-0.01-93.9c12.27-10.16,24.38-4.59,38.33,1.81C297.97,288.579,312.34,295.179,326.75,286.939z
				 M320.09,308.209c2.11-0.66,3.28-2.91,2.61-5.02c-0.66-2.1-2.91-3.27-5.02-2.61c-9.52,3.01-19.52-1.58-30.11-6.44
				c-10.15-4.67-20.65-9.49-31.62-7.8c-2.19,0.34-3.68,2.38-3.35,4.57c0.34,2.18,2.38,3.67,4.57,3.34c8.6-1.33,17.56,2.8,27.06,7.16
				c8.76,4.02,17.74,8.14,27.04,8.14C314.18,309.549,317.12,309.149,320.09,308.209z M320.09,323.869c2.11-0.66,3.28-2.91,2.61-5.02
				c-0.66-2.1-2.91-3.27-5.02-2.61c-9.52,3.01-19.53-1.58-30.12-6.44c-10.15-4.66-20.65-9.48-31.61-7.8
				c-2.18,0.34-3.68,2.38-3.35,4.56c0.34,2.19,2.39,3.69,4.56,3.35c8.6-1.32,17.57,2.8,27.07,7.16c8.76,4.02,17.74,8.14,27.04,8.14
				C314.18,325.209,317.12,324.809,320.09,323.869z M320.09,339.529c2.11-0.66,3.28-2.91,2.61-5.02c-0.66-2.1-2.91-3.27-5.02-2.61
				c-9.53,3.01-19.53-1.58-30.12-6.44c-10.15-4.66-20.65-9.48-31.61-7.8c-2.18,0.34-3.68,2.38-3.35,4.56
				c0.34,2.19,2.39,3.69,4.56,3.35c8.6-1.32,17.57,2.8,27.07,7.16c8.76,4.02,17.74,8.14,27.04,8.14
				C314.18,340.869,317.12,340.469,320.09,339.529z M320.09,355.189c2.11-0.66,3.28-2.91,2.61-5.02c-0.66-2.1-2.91-3.27-5.02-2.61
				c-9.52,3.01-19.53-1.58-30.12-6.44c-10.15-4.66-20.65-9.48-31.61-7.8c-2.18,0.34-3.68,2.38-3.35,4.56
				c0.34,2.19,2.39,3.68,4.56,3.35c8.6-1.32,17.57,2.8,27.07,7.16c8.76,4.02,17.74,8.14,27.04,8.14
				C314.18,356.529,317.12,356.129,320.09,355.189z M320.09,370.849c2.11-0.66,3.28-2.91,2.61-5.02c-0.66-2.1-2.91-3.27-5.02-2.61
				c-9.52,3.01-19.53-1.58-30.12-6.44c-10.15-4.66-20.64-9.48-31.61-7.8c-2.18,0.34-3.68,2.38-3.35,4.56
				c0.34,2.19,2.38,3.68,4.56,3.35c8.6-1.32,17.57,2.8,27.07,7.16c8.76,4.02,17.74,8.14,27.04,8.14
				C314.18,372.189,317.12,371.789,320.09,370.849z"/>
			<path style="fill:#BC482E;" d="M324.69,81.919l-1.23,20.09c-0.6,0.02-1.21,0.02-1.83,0.02c-0.49,0-0.97,0-1.45-0.01l-1.99-20.08
				c1.12-0.05,2.26-0.08,3.44-0.08C322.67,81.859,323.69,81.879,324.69,81.919z"/>
			<path style="fill:#E8653D;" d="M322.94,205.319l-0.01,11.33l-114.36,0.01l0.01-11.33h5.39v3.33c0,2.21,1.79,4,3.99,4
				c0.01,0,0.01,0,0.01,0c2.21,0,4-1.78,4-3.99v-3.34h5.65v3.33c0,2.21,1.79,4,4,4c1.11,0,2.11-0.45,2.83-1.17s1.17-1.72,1.17-2.82
				v-3.34h5.66v3.33c-0.01,2.21,1.78,4,3.99,4c0,0,0,0,0.01,0c2.2,0,3.99-1.79,4-4v-3.33h5.65v3.33c0,2.21,1.79,4,4,4
				c1.1,0,2.1-0.45,2.83-1.17c0.72-0.73,1.17-1.73,1.17-2.83v-3.33h5.66l-0.01,3.33c0,2.2,1.79,4,4,4c1.11,0,2.11-0.45,2.83-1.17
				c0.72-0.73,1.17-1.73,1.17-2.83l0.01-3.34h5.65v3.33c0,2.21,1.79,4.01,3.99,4.01c0.01,0,0.01,0,0.01,0c2.21,0,4-1.79,4-4v-3.34
				h5.65v3.33c0,2.21,1.79,4,4,4.01c1.1,0,2.1-0.45,2.83-1.17c0.72-0.73,1.17-1.73,1.17-2.83v-3.34h5.66v3.33
				c-0.01,2.21,1.78,4,3.99,4c0,0,0,0,0.01,0c2.2,0,3.99-1.78,4-3.99v-3.34H322.94z"/>
			<path d="M322.7,303.189c0.67,2.11-0.5,4.36-2.61,5.02c-2.97,0.94-5.91,1.34-8.82,1.34c-9.3,0-18.28-4.12-27.04-8.14
				c-9.5-4.36-18.46-8.49-27.06-7.16c-2.19,0.33-4.23-1.16-4.57-3.34c-0.33-2.19,1.16-4.23,3.35-4.57
				c10.97-1.69,21.47,3.13,31.62,7.8c10.59,4.86,20.59,9.45,30.11,6.44C319.79,299.919,322.04,301.089,322.7,303.189z"/>
			<path d="M322.7,318.849c0.67,2.11-0.5,4.36-2.61,5.02c-2.97,0.94-5.91,1.34-8.82,1.34c-9.3,0-18.28-4.12-27.04-8.14
				c-9.5-4.36-18.47-8.48-27.07-7.16c-2.17,0.34-4.22-1.16-4.56-3.35c-0.33-2.18,1.17-4.22,3.35-4.56
				c10.96-1.68,21.46,3.14,31.61,7.8c10.59,4.86,20.6,9.45,30.12,6.44C319.79,315.579,322.04,316.749,322.7,318.849z"/>
			<path d="M322.7,334.509c0.67,2.11-0.5,4.36-2.61,5.02c-2.97,0.94-5.91,1.34-8.82,1.34c-9.3,0-18.28-4.12-27.04-8.14
				c-9.5-4.36-18.47-8.48-27.07-7.16c-2.17,0.34-4.22-1.16-4.56-3.35c-0.33-2.18,1.17-4.22,3.35-4.56
				c10.96-1.68,21.46,3.14,31.61,7.8c10.59,4.86,20.59,9.45,30.12,6.44C319.79,331.239,322.04,332.409,322.7,334.509z"/>
			<path d="M322.7,350.169c0.67,2.11-0.5,4.36-2.61,5.02c-2.97,0.94-5.91,1.34-8.82,1.34c-9.3,0-18.28-4.12-27.04-8.14
				c-9.5-4.36-18.47-8.48-27.07-7.16c-2.17,0.33-4.22-1.16-4.56-3.35c-0.33-2.18,1.17-4.22,3.35-4.56
				c10.96-1.68,21.46,3.14,31.61,7.8c10.59,4.86,20.6,9.45,30.12,6.44C319.79,346.899,322.04,348.069,322.7,350.169z"/>
			<path d="M322.7,365.829c0.67,2.11-0.5,4.36-2.61,5.02c-2.97,0.94-5.91,1.34-8.82,1.34c-9.3,0-18.28-4.12-27.04-8.14
				c-9.5-4.36-18.47-8.48-27.07-7.16c-2.18,0.33-4.22-1.16-4.56-3.35c-0.33-2.18,1.17-4.22,3.35-4.56
				c10.97-1.68,21.46,3.14,31.61,7.8c10.59,4.86,20.6,9.45,30.12,6.44C319.79,362.559,322.04,363.729,322.7,365.829z"/>
			<path style="fill:#BC482E;" d="M310.24,82.789l1.84,18.6c-1.27-0.18-2.49-0.39-3.64-0.63l-3.85-16.67
				C306.3,83.589,308.19,83.149,310.24,82.789z"/>
			<path style="fill:#BC482E;" d="M297.1,87.249l2.48,10.71c-4.11-1.9-6.4-4.15-6.4-6.01C293.18,90.499,294.56,88.819,297.1,87.249z
				"/>
			<path style="fill:#29ABE2;" d="M285.39,398.439h-41.34c0.04-0.02,0.09-0.04,0.13-0.06c0.06-0.02,0.13-0.03,0.19-0.06
				c0.02-0.01,0.04-0.02,0.06-0.03c0.09-0.05,0.18-0.1,0.27-0.15c0.08-0.05,0.16-0.09,0.24-0.14c0.08-0.05,0.16-0.11,0.23-0.17
				c0.08-0.06,0.16-0.12,0.24-0.18c0.01-0.02,0.03-0.03,0.05-0.05c12.71-11.67,25.18-5.94,39.62,0.69
				C285.18,398.339,285.29,398.389,285.39,398.439z"/>
			<path d="M278.84,150.159c0.32,2.19-1.2,4.22-3.38,4.54l-9.46,1.37l9.46,1.38c2.18,0.32,3.7,2.35,3.38,4.53
				c-0.32,2.19-2.35,3.7-4.54,3.38l-35.04-5.09l-11.23,8.29c-1.04,6.88-6.98,12.18-14.15,12.18c-7.9,0-14.33-6.43-14.33-14.33
				c0-4.06,1.7-7.73,4.42-10.34c-2.72-2.61-4.42-6.27-4.42-10.33c0-7.9,6.43-14.33,14.33-14.33c7.17,0,13.11,5.29,14.15,12.18
				l11.23,8.29l35.04-5.1C276.49,146.459,278.52,147.979,278.84,150.159z M226.54,159.709l4.94-3.64l-4.94-3.64
				c-0.72,1.36-1.65,2.59-2.75,3.64C224.89,157.129,225.82,158.349,226.54,159.709z M220.21,145.739c0-3.49-2.84-6.33-6.33-6.33
				c-3.49,0-6.33,2.84-6.33,6.33c0,3.49,2.84,6.33,6.33,6.33C217.37,152.069,220.21,149.229,220.21,145.739z M220.21,166.409
				c0-3.5-2.84-6.34-6.33-6.34c-3.49,0-6.33,2.84-6.33,6.34c0,3.49,2.84,6.33,6.33,6.33
				C217.37,172.739,220.21,169.899,220.21,166.409z"/>
			<path style="fill:#29ABE2;" d="M241.47,398.439h-41.36c0.11-0.05,0.21-0.1,0.31-0.15c14.45-6.63,26.92-12.36,39.63-0.69
				c0.02,0.02,0.04,0.03,0.06,0.05c0.07,0.06,0.15,0.12,0.23,0.18s0.16,0.12,0.23,0.17c0.08,0.05,0.16,0.09,0.24,0.14
				c0.09,0.05,0.18,0.1,0.28,0.15c0.02,0.01,0.04,0.02,0.06,0.03c0.06,0.02,0.12,0.04,0.18,0.06
				C241.38,398.399,241.42,398.419,241.47,398.439z"/>
			<path style="fill:#B3B3B3;" d="M238.76,384.479v2.27c-14.42-8.24-28.79-1.64-41.67,4.27c-13.96,6.41-26.07,11.98-38.33,1.82
				v-2.27c4.85,2.78,9.71,3.87,14.5,3.87c9.43,0,18.62-4.22,27.16-8.15C214.38,379.889,226.49,374.329,238.76,384.479z"/>
			<path style="fill:#E6E6E6;" d="M238.75,280.849v93.9c-14.41-8.24-28.78-1.64-41.67,4.27c-13.95,6.41-26.06,11.98-38.32,1.83
				v-89.82c0-0.01-0.01-0.02-0.01-0.03v-4.06c14.42,8.24,28.79,1.64,41.67-4.28C214.38,276.259,226.49,270.689,238.75,280.849z
				 M232.9,290.909c0.34-2.19-1.16-4.23-3.34-4.57c-10.97-1.69-21.47,3.13-31.62,7.8c-10.59,4.86-20.59,9.45-30.12,6.44
				c-2.1-0.66-4.35,0.51-5.01,2.61c-0.67,2.11,0.5,4.36,2.61,5.02c2.97,0.94,5.91,1.34,8.82,1.34c9.29,0,18.28-4.12,27.04-8.14
				c9.5-4.36,18.47-8.48,27.06-7.16C230.52,294.589,232.57,293.089,232.9,290.909z M232.9,306.559c0.34-2.18-1.16-4.22-3.34-4.56
				c-10.98-1.68-21.47,3.14-31.62,7.8c-10.59,4.86-20.59,9.45-30.12,6.44c-2.1-0.66-4.35,0.51-5.01,2.61
				c-0.67,2.11,0.5,4.36,2.61,5.02c2.97,0.94,5.91,1.34,8.82,1.34c9.3,0,18.28-4.12,27.04-8.14c9.5-4.36,18.47-8.48,27.06-7.16
				C230.53,310.249,232.57,308.749,232.9,306.559z M232.9,322.219c0.34-2.18-1.16-4.22-3.34-4.56c-10.98-1.68-21.47,3.14-31.62,7.8
				c-10.59,4.86-20.59,9.45-30.12,6.44c-2.1-0.66-4.35,0.51-5.01,2.61c-0.67,2.11,0.5,4.36,2.61,5.02c2.97,0.94,5.91,1.34,8.82,1.34
				c9.3,0,18.28-4.12,27.04-8.14c9.5-4.36,18.47-8.48,27.06-7.16C230.53,325.909,232.57,324.409,232.9,322.219z M232.9,337.879
				c0.34-2.18-1.16-4.22-3.34-4.56c-10.98-1.68-21.47,3.14-31.62,7.8c-10.59,4.86-20.59,9.45-30.12,6.44
				c-2.1-0.66-4.35,0.51-5.01,2.61c-0.67,2.11,0.5,4.36,2.61,5.02c2.97,0.94,5.91,1.34,8.82,1.34c9.3,0,18.28-4.12,27.04-8.14
				c9.5-4.36,18.47-8.48,27.06-7.16C230.53,341.559,232.57,340.069,232.9,337.879z M232.9,353.539c0.34-2.18-1.16-4.22-3.34-4.56
				c-10.97-1.68-21.46,3.14-31.62,7.8c-10.59,4.86-20.59,9.45-30.12,6.44c-2.1-0.66-4.35,0.51-5.01,2.61
				c-0.67,2.11,0.5,4.36,2.61,5.02c2.97,0.94,5.91,1.34,8.82,1.34c9.3,0,18.28-4.12,27.04-8.14c9.5-4.36,18.47-8.48,27.06-7.16
				C230.53,357.219,232.57,355.729,232.9,353.539z"/>
			<path d="M229.56,286.339c2.18,0.34,3.68,2.38,3.34,4.57c-0.33,2.18-2.38,3.68-4.56,3.34c-8.59-1.32-17.56,2.8-27.06,7.16
				c-8.76,4.02-17.75,8.14-27.04,8.14c-2.91,0-5.85-0.4-8.82-1.34c-2.11-0.66-3.28-2.91-2.61-5.02c0.66-2.1,2.91-3.27,5.01-2.61
				c9.53,3.01,19.53-1.58,30.12-6.44C208.09,289.469,218.59,284.649,229.56,286.339z"/>
			<path d="M229.56,301.999c2.18,0.34,3.68,2.38,3.34,4.56c-0.33,2.19-2.37,3.69-4.56,3.35c-8.59-1.32-17.56,2.8-27.06,7.16
				c-8.76,4.02-17.74,8.14-27.04,8.14c-2.91,0-5.85-0.4-8.82-1.34c-2.11-0.66-3.28-2.91-2.61-5.02c0.66-2.1,2.91-3.27,5.01-2.61
				c9.53,3.01,19.53-1.58,30.12-6.44C208.09,305.139,218.58,300.319,229.56,301.999z"/>
			<path d="M229.56,317.659c2.18,0.34,3.68,2.38,3.34,4.56c-0.33,2.19-2.37,3.69-4.56,3.35c-8.59-1.32-17.56,2.8-27.06,7.16
				c-8.76,4.02-17.74,8.14-27.04,8.14c-2.91,0-5.85-0.4-8.82-1.34c-2.11-0.66-3.28-2.91-2.61-5.02c0.66-2.1,2.91-3.27,5.01-2.61
				c9.53,3.01,19.53-1.58,30.12-6.44C208.09,320.799,218.58,315.979,229.56,317.659z"/>
			<path d="M229.56,333.319c2.18,0.34,3.68,2.38,3.34,4.56c-0.33,2.19-2.37,3.68-4.56,3.35c-8.59-1.32-17.56,2.8-27.06,7.16
				c-8.76,4.02-17.74,8.14-27.04,8.14c-2.91,0-5.85-0.4-8.82-1.34c-2.11-0.66-3.28-2.91-2.61-5.02c0.66-2.1,2.91-3.27,5.01-2.61
				c9.53,3.01,19.53-1.58,30.12-6.44C208.09,336.459,218.58,331.639,229.56,333.319z"/>
			<path d="M229.56,348.979c2.18,0.34,3.68,2.38,3.34,4.56c-0.33,2.19-2.37,3.68-4.56,3.35c-8.59-1.32-17.56,2.8-27.06,7.16
				c-8.76,4.02-17.74,8.14-27.04,8.14c-2.91,0-5.85-0.4-8.82-1.34c-2.11-0.66-3.28-2.91-2.61-5.02c0.66-2.1,2.91-3.27,5.01-2.61
				c9.53,3.01,19.53-1.58,30.12-6.44C208.1,352.119,218.59,347.299,229.56,348.979z"/>
			<path style="fill:#9CD68A;" d="M231.48,156.069l-4.94,3.64c-0.72-1.36-1.65-2.58-2.75-3.64c1.1-1.05,2.03-2.28,2.75-3.64
				L231.48,156.069z"/>
			<path style="fill:#9CD68A;" d="M213.88,139.409c3.49,0,6.33,2.84,6.33,6.33c0,3.49-2.84,6.33-6.33,6.33
				c-3.49,0-6.33-2.84-6.33-6.33C207.55,142.249,210.39,139.409,213.88,139.409z"/>
			<path style="fill:#9CD68A;" d="M213.88,160.069c3.49,0,6.33,2.84,6.33,6.34c0,3.49-2.84,6.33-6.33,6.33
				c-3.49,0-6.33-2.84-6.33-6.33C207.55,162.909,210.39,160.069,213.88,160.069z"/>
			<path style="fill:#9CD68A;" d="M185.37,110.179h6.51c-0.49,21.87-9.05,43.6-25.71,60.25c-17.16,17.17-39.7,25.75-62.25,25.75
				c-21.3-0.01-42.59-7.68-59.35-22.99l4.65-4.65c14.47,13.13,33.67,21.14,54.7,21.14C148.19,189.679,184.3,154.199,185.37,110.179z
				"/>
			<path style="fill:#29ABE2;" d="M164.34,66.399c8.24,11.87,13.08,26.27,13.08,41.78c0,40.53-32.97,73.5-73.5,73.5
				s-73.5-32.97-73.5-73.5s32.97-73.5,73.5-73.5c22.12,0,41.98,9.84,55.46,25.36l-3.49,3.49c-1.56,1.56-1.56,4.1,0,5.66
				c0.78,0.78,1.8,1.17,2.83,1.17c1.02,0,2.04-0.39,2.83-1.17L164.34,66.399z M172.18,108.339c0-2.21-1.79-4-4-4c-2.21,0-4,1.79-4,4
				c0,33.37-27.14,60.51-60.51,60.51c-2.21,0-4,1.79-4,4c0,2.21,1.79,4,4,4C141.45,176.849,172.18,146.119,172.18,108.339z
				 M107.67,43.829c0-2.21-1.79-4-4-4c-37.78,0-68.51,30.73-68.51,68.51c0,2.21,1.79,4,4,4s4-1.79,4-4
				c0-33.37,27.14-60.51,60.51-60.51C105.88,47.829,107.67,46.039,107.67,43.829z"/>
			<path d="M168.18,104.339c2.21,0,4,1.79,4,4c0,37.78-30.73,68.51-68.51,68.51c-2.21,0-4-1.79-4-4c0-2.21,1.79-4,4-4
				c33.37,0,60.51-27.14,60.51-60.51C164.18,106.129,165.97,104.339,168.18,104.339z"/>
			<path style="fill:#29ABE2;" d="M107.92,216.339c16.31,0.85,26.52,6.73,26.52,10.88c0,4.48-11.89,10.99-30.52,10.99
				s-30.52-6.51-30.52-10.99c0-4.15,10.21-10.03,26.52-10.88v8.34c0,2.21,1.79,4,4,4s4-1.79,4-4V216.339z"/>
			<path d="M115.42,293.769v108.67c0,2.21-1.79,4-4,4h-82c-2.21,0-4-1.79-4-4v-108.67c0-2.21,1.79-4,4-4h82
				C113.63,289.769,115.42,291.559,115.42,293.769z M107.42,398.439v-3.34h-74v3.34H107.42z M107.42,387.099v-3.33h-74v3.33H107.42z
				 M107.42,375.769v-78h-74v78H107.42z"/>
			<rect x="33.42" y="395.099" style="fill:#1B8CAA;" width="74" height="3.34"/>
			<rect x="33.42" y="383.769" style="fill:#1B8CAA;" width="74" height="3.33"/>
			<path style="fill:#29ABE2;" d="M107.42,297.769v78h-74v-78H107.42z M97.42,317.099c0-2.21-1.79-4-4-4H48.75c-2.2,0-4,1.79-4,4
				c0,2.21,1.8,4,4,4h44.67C95.63,321.099,97.42,319.309,97.42,317.099z M97.42,327.769c0-2.21-1.79-4-4-4H48.75c-2.2,0-4,1.79-4,4
				s1.8,4,4,4h44.67C95.63,331.769,97.42,329.979,97.42,327.769z"/>
			<path d="M103.67,39.829c2.21,0,4,1.79,4,4c0,2.21-1.79,4-4,4c-33.37,0-60.51,27.14-60.51,60.51c0,2.21-1.79,4-4,4s-4-1.79-4-4
				C35.16,70.559,65.89,39.829,103.67,39.829z"/>
			<path d="M93.42,313.099c2.21,0,4,1.79,4,4c0,2.21-1.79,4-4,4H48.75c-2.2,0-4-1.79-4-4c0-2.21,1.8-4,4-4H93.42z"/>
			<path d="M93.42,323.769c2.21,0,4,1.79,4,4s-1.79,4-4,4H48.75c-2.2,0-4-1.79-4-4s1.8-4,4-4H93.42z"/>
		</g>
		<g>
		</g>
	</g>
</g>
<g>
</g>
<g>
</g>
<g>
</g>
<g>
</g>
<g>
</g>
<g>
</g>
<g>
</g>
<g>
</g>
<g>
</g>
<g>
</g>
<g>
</g>
<g>
</g>
<g>
</g>
<g>
</g>
<g>
</g>
</svg>
